<?xml version="1.0" encoding="UTF-8"?>
<svg version="1.1" xmlns="http://www.w3.org/2000/svg" width="16" height="16">
<path d="M0 0 C3.3125 0.1875 3.3125 0.1875 7 1 C9.52490921 3.85070395 9.97228108 5.51029901 10.1875 9.3125 C10.0946875 10.6428125 10.0946875 10.6428125 10 12 C8.68 12 7.36 12 6 12 C5.67 13.32 5.34 14.64 5 16 C4.38125 15.814375 3.7625 15.62875 3.125 15.4375 C0.95839822 14.76313824 0.95839822 14.76313824 -1 16 C0.39332574 12.63279613 1.9789286 11.0140476 5 9 C4.67 8.01 4.34 7.02 4 6 C3.44570312 6.5053125 2.89140625 7.010625 2.3203125 7.53125 C1.59585937 8.1809375 0.87140625 8.830625 0.125 9.5 C-0.59429688 10.1496875 -1.31359375 10.799375 -2.0546875 11.46875 C-4 13 -4 13 -6 13 C-3.10933941 3.40546697 -3.10933941 3.40546697 0 0 Z " fill="#FF3098" transform="translate(6,0)"/>
</svg>
